inDegrees=yes
name=ik_S48_A13_T02
DataType=double
version=3
OpenSimVersion=4.3-2021-08-27-4bc7ad9
endheader
time	pelvis_tilt	pelvis_list	pelvis_rotation	pelvis_tx	pelvis_ty	pelvis_tz	hip_flexion_r	hip_adduction_r	hip_rotation_r	knee_angle_r	knee_angle_r_beta	ankle_angle_r	subtalar_angle_r	mtp_angle_r	hip_flexion_l	hip_adduction_l	hip_rotation_l	knee_angle_l	knee_angle_l_beta	ankle_angle_l	subtalar_angle_l	mtp_angle_l	lumbar_extension	lumbar_bending	lumbar_rotation	arm_flex_r	arm_add_r	arm_rot_r	elbow_flex_r	pro_sup_r	wrist_flex_r	wrist_dev_r	arm_flex_l	arm_add_l	arm_rot_l	elbow_flex_l	pro_sup_l	wrist_flex_l	wrist_dev_l
3.900000000000003	-3.051355735671452	-2.173482818192656	31.32069147297205	0	0.9399999999999999	0	13.7908973662428	-5.78615489150345	-4.500696500961485	17.63509298855259	0.3077904365456093	0	0	0	13.7908973662428	-5.78615489150345	-4.500696500961485	17.63509298855259	0.3077904365456093	0	0	0	-1.653752944987946	-0.4745426487763095	14.70473797377209	35.79204628650219	-15.90925793134749	19.58682715099816	32.69924763828703	179.7973570693579	0	0	100.5152450869517	-48.47498211043701	66.63530429286317	42.38939804916432	89.65406674628706	0	0
3.920000000000003	-3.039236032653987	-2.159776653447925	31.36239106926944	0	0.9399999999999999	0	13.81246029777155	-5.794671104847195	-4.507834379900055	17.65638813799667	0.3081621070181129	0	0	0	13.81246029777155	-5.794671104847195	-4.507834379900055	17.65638813799667	0.3081621070181129	0	0	0	-1.638496865555502	-0.467493137680692	14.68064431999752	38.02892031743761	-15.38333467059428	18.8984621184899	34.58064758986288	179.7894969359317	0	0	100.4027936649367	-48.53515028933429	66.70065518578768	42.80002102787376	89.33208258709978	0	0
3.940000000000003	-3.03873018126786	-2.159262738945756	31.43235374683769	0	0.9399999999999999	0	13.83397808441351	-5.803160049165154	-4.514954717464876	17.67763599727827	0.3085329521215772	0	0	0	13.83397808441351	-5.803160049165154	-4.514954717464876	17.67763599727827	0.3085329521215772	0	0	0	-1.640443913692718	-0.4631289982459376	14.61067359874234	40.36261521686449	-14.7497049175396	18.35924362422566	36.5249466519075	179.7740437262094	0	0	100.3595873127539	-48.60464890167344	66.78043030417516	43.17394992108036	88.9926790719804	0	0
3.960000000000003	-3.023266454739857	-2.164014096232306	31.58630905884006	0	0.9399999999999999	0	13.85502136239862	-5.811454222900356	-4.521916202639056	17.69840953337188	0.3088955187236925	0	0	0	13.85502136239862	-5.811454222900356	-4.521916202639056	17.69840953337188	0.3088955187236925	0	0	0	-1.63305886595023	-0.4676618134452862	14.51158313319515	42.63436823678116	-14.06085550023821	18.08434822262093	38.51047611954322	179.744542866341	0	0	100.3237782452444	-48.5674761373862	66.63810585820056	43.4916377381093	88.90495309393788	0	0
3.980000000000003	-3.01728515653326	-2.165516384897902	31.63778401537947	0	0.9399999999999999	0	13.86379413975044	-5.814897739211842	-4.524812876310844	17.70708889791966	0.3090470022120322	0	0	0	13.86379413975044	-5.814897739211842	-4.524812876310844	17.70708889791966	0.3090470022120322	0	0	0	-1.627946835463026	-0.4734104380275098	14.52614434989841	42.62098963077297	-14.10224896525569	18.02942623781095	38.56109186593783	179.7413300579278	0	0	100.2994360196775	-48.50261112381011	66.62988133359104	43.60091867509824	88.78662502974687	0	0
4.000000000000003	-2.957167172048623	-2.154453041511318	31.89322762069532	0	0.9399999999999999	0	13.88244567308243	-5.822230255510208	-4.530976635171874	17.72551414586062	0.3093685834540982	0	0	0	13.88244567308243	-5.822230255510208	-4.530976635171874	17.72551414586062	0.3093685834540982	0	0	0	-1.570147239910435	-0.495658360435867	14.50380371862779	44.73650319349167	-13.33349672648676	17.84080626434829	36.17508475027386	179.7740111674136	0	0	100.2213942510354	-48.28625466199855	66.51015827159148	44.08273488950952	88.88841444800131	0	0
4.020000000000002	-2.932400739021554	-2.165001827529457	32.29292964454097	0	0.9399999999999999	0	13.92057289492486	-5.8371768168289	-4.54356551890272	17.76315963411841	0.3100256211727175	0	0	0	13.92057289492486	-5.8371768168289	-4.54356551890272	17.76315963411841	0.3100256211727175	0	0	0	-1.568076593145781	-0.498819407354966	14.21919993897647	48.89854319805941	-11.51326780317214	18.05828400109666	35.83604700927435	179.6791902631971	0	0	100.221754473668	-48.20245035573691	66.57660904571989	44.24798995271204	88.92845546221906	0	0
4.040000000000002	-2.902608439278984	-2.154100408889406	32.86780079208623	0	0.9399999999999999	0	14.48188741567471	-5.999631551441209	-4.703369064945751	18.43260905747912	0.3217097177859394	0	0	0	14.48188741567471	-5.999631551441209	-4.703369064945751	18.43260905747912	0.3217097177859394	0	0	0	-1.567489507865176	-0.4773429023919833	13.732230769611	51.19991539156855	-10.78385216393774	17.79828960306031	45.70497481603837	177.7832179365441	0	0	100.0978211362867	-48.12756988747823	66.53783867362378	44.53087308652828	88.85246057327551	0	0
4.060000000000001	-2.868623912672934	-2.184472533929483	33.09868631336855	0	0.9399999999999999	0	14.5009756144011	-6.007007863775099	-4.709643064371182	18.45126610316416	0.3220353446618384	0	0	0	14.5009756144011	-6.007007863775099	-4.709643064371182	18.45126610316416	0.3220353446618384	0	0	0	-1.558157574935825	-0.5176152321247222	13.67924790904978	53.5013473132552	-9.988222735853176	17.14974635966926	47.2048114933414	177.4815274035537	0	0	100.1979604583785	-47.93565191366958	66.8706834132672	44.73019732045368	88.5332455063286	0	0
4.080000000000001	-2.829447468070827	-2.206835483438532	33.33363377982415	0	0.9399999999999999	0	14.51614978675174	-6.012861229486798	-4.714626766891781	18.46610662740646	0.3222943606725885	0	0	0	14.51614978675174	-6.012861229486798	-4.714626766891781	18.46610662740646	0.3222943606725885	0	0	0	-1.539169468736624	-0.5557157748035182	13.65101032959411	55.75108439643907	-9.140761804566079	16.39482396095915	48.32174231299462	177.0072117004413	0	0	100.2329245108555	-47.70207146796766	66.80356731759328	44.92576023597835	88.54580567060449	0	0
4.100000000000001	-2.796823211110054	-2.213019745930796	33.58737864440018	0	0.9399999999999999	0	14.53258794697405	-6.019200241063536	-4.720025615583707	18.48217467561099	0.3225748010181266	0	0	0	14.53258794697405	-6.019200241063536	-4.720025615583707	18.48217467561099	0.3225748010181266	0	0	0	-1.520437038165473	-0.5726588102617551	13.54998197224844	57.93912983576743	-8.268445099235189	16.12504124139678	49.44487646033991	176.1327071715465	0	0	100.2788482798184	-47.55162962193266	66.90541030090624	45.22895627181682	88.36688971877847	0	0
4.12	-2.750285517962535	-2.213426687366087	33.85385946035868	0	0.9399999999999999	0	14.55060170785838	-6.0261433397872	-4.725941376660195	18.49977555577122	0.3228819943281717	0	0	0	14.55060170785838	-6.0261433397872	-4.725941376660195	18.49977555577122	0.3228819943281717	0	0	0	-1.485916362294484	-0.5943365860785578	13.46453531488554	60.10429190050549	-7.441486036146017	15.68069132919355	50.46205933318081	175.6364721516527	0	0	100.3082011475326	-47.37756637814816	67.1231297988006	45.42273191131878	87.97431873969327	0	0
4.14	-2.723532831649237	-2.22280486546725	34.07606987522487	0	0.9399999999999999	0	14.56911471310084	-6.033271734447292	-4.732019007716225	18.51786279331804	0.323197676175954	0	0	0	14.56911471310084	-6.033271734447292	-4.732019007716225	18.51786279331804	0.323197676175954	0	0	0	-1.473794472889551	-0.6106482503410235	13.33993350293841	62.24954638442047	-6.527998052046335	15.36845333502822	51.4738476107679	175.6302502234097	0	0	100.2806489100037	-47.26938288503992	67.17311276439264	45.67048781718344	87.43042412838282	0	0
4.159999999999999	-2.669862878420437	-2.246224852508429	34.37027438865211	0	0.9399999999999999	0	14.58624719903659	-6.039800204734034	-4.737613439618045	18.53473124160006	0.3234920861381776	0	0	0	14.58624719903659	-6.039800204734034	-4.737613439618045	18.53473124160006	0.3234920861381776	0	0	0	-1.447871695670165	-0.6520208527032646	13.21856722001971	62.25544861968833	-6.749313402495882	15.17891635935922	54.74292873491162	175.2727622336223	0	0	100.3420400679498	-47.13074994891711	67.39821749382484	45.96045904058982	86.88336610580065	0	0
4.179999999999999	-2.636595879653635	-2.252630311581031	34.64557910043311	0	0.9399999999999999	0	14.59709032448427	-6.043958247954892	-4.741166561829759	18.54534400640535	0.3236773138267697	0	0	0	14.59709032448427	-6.043958247954892	-4.741166561829759	18.54534400640535	0.3236773138267697	0	0	0	-1.429014064538831	-0.6690619735383244	13.12064171462616	64.38899992214226	-5.85316741792116	15.00329071968542	55.22144228524629	174.945166059022	0	0	100.3612775868377	-46.92612102792035	67.26714827944294	46.1773651142789	86.89015289645792	0	0
4.199999999999998	-2.579477781677458	-2.288180600535065	34.92545394404752	0	0.9399999999999999	0	14.6116709932673	-6.049556833995059	-4.745948353393977	18.55959045599539	0.3239259612788353	0	0	0	14.6116709932673	-6.049556833995059	-4.745948353393977	18.55959045599539	0.3239259612788353	0	0	0	-1.407204110393867	-0.7247209601147873	13.01488079610968	66.44562487427858	-4.977266827298019	14.87024679631201	55.50093648216503	174.1231210792803	0	0	100.4708314378761	-46.74456036643544	67.18147664687757	46.32246431846706	87.15449174253115	0	0
